<?xml version="1.0" standalone="no"?>
<!DOCTYPE svg PUBLIC "-//W3C//DTD SVG 1.1//EN" "http://www.w3.org/Graphics/SVG/1.1/DTD/svg11.dtd" >
<svg xmlns="http://www.w3.org/2000/svg" xmlns:xlink="http://www.w3.org/1999/xlink" version="1.1">
<metadata></metadata>
<defs>
<font id="volvosanslightlight" horiz-adv-x="1067" >
<font-face units-per-em="2048" ascent="1550" descent="-498" />
<missing-glyph horiz-adv-x="555" />
<glyph horiz-adv-x="0" />
<glyph unicode="&#xd;" horiz-adv-x="555" />
<glyph unicode=" "  horiz-adv-x="555" />
<glyph unicode="&#x09;" horiz-adv-x="555" />
<glyph unicode="&#xa0;" horiz-adv-x="555" />
<glyph unicode="!" horiz-adv-x="426" d="M176 0v238h156v-238h-156zM188 629v829h131v-829l-18 -269h-96z" />
<glyph unicode="&#x22;" horiz-adv-x="811" d="M123 1440q0 94 94 94q19 0 37 -6q49 -23 49 -94l-72 -523h-38l-68 496q0 6 -1 17t-1 16zM508 1440q0 94 92 94q18 0 37 -6q51 -24 51 -94l-74 -523h-39l-65 496q-2 15 -2 33z" />
<glyph unicode="#" horiz-adv-x="1366" d="M86 530v111h358l27 199h-342v116h356l66 494h129l-70 -494h205l64 494h122l-67 -494h344v-116h-358l-27 -199h344v-111h-358l-72 -530h-127l78 530h-207l-78 -530h-119l74 530h-342zM565 641h207l27 199h-205z" />
<glyph unicode="$" horiz-adv-x="1196" d="M55 383l115 20q27 -152 137 -225q84 -55 219 -65v604q-185 49 -272 114q-127 95 -127 263q0 173 125 267q104 79 274 93v119h113v-119q310 -22 422 -303l-107 -43q-88 215 -315 235v-526q55 -15 129 -37q322 -112 322 -368q0 -151 -110 -265q-124 -128 -341 -147v-188 h-113v186q-167 8 -282 84q-150 98 -189 301zM254 1100q0 -175 233 -242q15 -4 39 -10v495q-115 -10 -187 -65q-85 -65 -85 -178zM639 117q155 16 241 103q76 77 76 186q0 116 -86 186q-60 49 -231 96v-571z" />
<glyph unicode="%" horiz-adv-x="1792" d="M63 993q0 211 82 337q86 134 242 134q175 0 257 -164q64 -129 61 -323q-4 -191 -79 -312q-86 -139 -243 -139q-163 0 -248 149q-72 126 -72 318zM170 995q0 -194 61 -290q55 -87 154 -87q211 0 215 361q2 177 -51 282q-57 113 -164 113q-105 0 -163 -112 q-52 -103 -52 -267zM502 -43l721 1579l84 -41l-723 -1575zM1087 451q0 210 82 336q86 135 242 135q175 0 257 -166q64 -129 61 -322q-4 -190 -78 -311q-86 -139 -244 -139q-163 0 -248 149q-72 126 -72 318zM1194 453q0 -195 61 -291q55 -86 154 -86q211 0 215 360 q2 177 -51 282q-57 113 -164 113q-105 0 -163 -112q-52 -102 -52 -266z" />
<glyph unicode="&#x26;" horiz-adv-x="1323" d="M113 385q0 150 100 281q68 87 264 215q-119 160 -119 309q0 126 78 204.5t209 78.5q129 0 206 -70.5t77 -183.5q0 -105 -70 -203q-53 -75 -209 -176q189 -302 312 -455q46 120 51 262h129q-7 -208 -105 -364q45 -56 115 -133q53 -44 119 -44v-124q-100 1 -170 50 q-46 32 -139 138q-50 -71 -138 -121q-116 -65 -258 -65q-203 0 -331 121q-121 115 -121 280zM252 391q0 -126 95 -209q91 -80 222 -80q190 0 322 160q-130 179 -172 244q-73 114 -174 268q-133 -82 -191 -144q-102 -107 -102 -239zM485 1192q0 -89 99 -246q217 109 217 264 q0 53 -31 94q-41 54 -121 54q-164 0 -164 -166z" />
<glyph unicode="'" horiz-adv-x="426" d="M123 1440q0 94 94 94q19 0 37 -6q49 -23 49 -94l-72 -523h-38l-68 496q0 6 -1 17t-1 16z" />
<glyph unicode="(" horiz-adv-x="641" d="M88 692q0 238 94 464q131 316 410 478v-102q-101 -94 -148 -154q-206 -266 -206 -684q0 -274 107 -527q103 -243 259 -368v-106q-248 156 -390 457q-126 267 -126 542z" />
<glyph unicode=")" horiz-adv-x="641" d="M37 1526v108q247 -156 388 -457q126 -267 126 -544q0 -236 -94 -462q-131 -316 -410 -478v100q99 92 148 156q206 271 206 682q0 274 -107 528q-102 241 -257 367z" />
<glyph unicode="*" horiz-adv-x="598" d="M55 1223l31 90l168 -56v189h94v-189l162 64l31 -88l-172 -57l104 -140l-76 -59l-96 149l-98 -149l-82 59l108 140z" />
<glyph unicode="+" horiz-adv-x="1366" d="M88 535v122h537v533h120v-533h535v-122h-535v-535h-120v535h-537z" />
<glyph unicode="," horiz-adv-x="342" d="M90 0v238h162v-164q0 -158 -13 -218q-16 -80 -81 -180l-68 45q78 120 78 267v12h-78z" />
<glyph unicode="-" horiz-adv-x="725" d="M78 600v133h571v-133h-571z" />
<glyph unicode="." horiz-adv-x="342" d="M90 0v238h162v-238h-162z" />
<glyph unicode="/" horiz-adv-x="981" d="M20 0l789 1446h152l-785 -1446h-156z" />
<glyph unicode="0" horiz-adv-x="1192" d="M88 721q0 332 126 534q136 220 386 220q284 0 413 -275q97 -206 91 -506q-7 -304 -124 -497q-135 -224 -386 -224q-261 0 -395 243q-111 200 -111 505zM225 725q0 -324 105 -487q95 -150 266 -150q362 0 371 608q4 303 -91 481q-99 185 -280 185q-180 0 -279 -186 q-92 -171 -92 -451z" />
<glyph unicode="1" horiz-adv-x="1192" d="M319 1116v111q276 6 263 219h127v-1446h-125v1174q-79 -61 -265 -58z" />
<glyph unicode="2" horiz-adv-x="1192" d="M121 1055q0 191 131 305.5t344 114.5q233 0 365 -135q124 -126 124 -326q0 -255 -272 -522q-124 -122 -301 -249q-129 -92 -201 -130h727v-113h-915v113l29 18q232 150 426 309q178 148 255 250q117 157 117 330q0 167 -106 261q-97 85 -252 85q-168 0 -267 -108 q-85 -93 -85 -218z" />
<glyph unicode="3" horiz-adv-x="1192" d="M88 416l137 45q-4 -194 110 -290q96 -81 257 -81q177 0 268 96q76 80 76 207q0 144 -84 225q-80 78 -293 78h-203v113h174q132 0 201 20q182 55 182 248q0 122 -83 203q-88 86 -236 86q-160 0 -255 -102q-84 -92 -81 -217l-143 36q100 392 479 392q192 0 314 -97 q136 -107 136 -305q0 -147 -90 -231q-68 -64 -227 -84q169 -8 261 -108q85 -94 85 -244q0 -191 -129 -310q-132 -123 -354 -123q-217 0 -354 123q-123 110 -148 320z" />
<glyph unicode="4" horiz-adv-x="1192" d="M115 362v103l635 981h135v-971h225v-113h-225v-362h-125v362h-645zM256 475h504v768z" />
<glyph unicode="5" horiz-adv-x="1192" d="M109 381l135 41q0 -126 67 -216q90 -120 271 -120q165 0 261.5 108t96.5 300q0 178 -86 282q-96 117 -258 117q-103 0 -182 -58q-98 -72 -131 -219l-105 13l25 819h764v-121h-645l-29 -500q87 174 323 174q202 0 329 -137q130 -140 130 -370q0 -224 -126 -368 q-133 -153 -359 -153q-235 0 -363 140q-96 105 -118 268z" />
<glyph unicode="6" horiz-adv-x="1192" d="M117 678q0 402 151 606q142 191 396 191q336 0 432 -320l-133 -47q-38 254 -297 254q-291 0 -377 -328q-33 -125 -41 -264q132 199 393 199q224 0 352 -147q119 -137 119 -353q0 -227 -135.5 -361.5t-353.5 -134.5q-506 0 -506 705zM254 512q0 -117 56 -230 q96 -196 317 -196q172 0 268 123q82 106 80 274q-3 179 -98 279q-92 96 -246 96q-158 0 -266 -97q-111 -99 -111 -249z" />
<glyph unicode="7" horiz-adv-x="1192" d="M129 1004v444h918v-123q-263 -355 -380 -696q-85 -249 -128 -629h-136q24 413 214 811q106 222 313 514h-684v-321h-117z" />
<glyph unicode="8" horiz-adv-x="1192" d="M92 406q0 152 110 258q74 73 171 104q6 1 16 4q-5 2 -18 6q-82 31 -143 100q-81 93 -81 216q0 164 118 269q124 112 333 112q216 0 342 -107q121 -102 121 -266q0 -127 -74 -218q-69 -84 -176 -112q118 -34 199 -127q92 -107 92 -248q0 -174 -123 -292 q-137 -132 -375 -132q-253 0 -393 142q-119 120 -119 291zM229 406q0 -138 101.5 -227t267.5 -89q174 0 274 93q92 84 95 214q3 152 -116 238q-103 76 -255 76q-150 0 -252 -76q-115 -84 -115 -229zM276 1090q0 -112 88 -187q93 -80 240 -80q156 0 244 80q84 75 82 193 q-2 137 -94 198q-85 70 -234 70q-166 0 -253 -90q-73 -75 -73 -184z" />
<glyph unicode="9" horiz-adv-x="1192" d="M82 977q0 209 120 346q132 152 361 152q516 0 516 -713q0 -789 -544 -789q-165 0 -271.5 76.5t-161.5 243.5l144 53q23 -260 293 -260q224 0 320 176q77 141 89 443q-112 -226 -399 -226q-199 0 -328 127q-139 136 -139 371zM219 975q0 -199 107 -297q91 -84 243 -84 q166 0 275 108q95 96 96 234q1 146 -76 268q-103 164 -301 164q-158 0 -249 -101q-95 -105 -95 -292z" />
<glyph unicode=":" horiz-adv-x="426" d="M176 0v238h160v-238h-160zM176 721v237h160v-237h-160z" />
<glyph unicode=";" horiz-adv-x="426" d="M174 0v238h162v-164q0 -158 -13 -218q-16 -80 -81 -180l-68 45q78 121 78 267v12h-78zM176 721v237h160v-237h-160z" />
<glyph unicode="&#x3c;" horiz-adv-x="1366" d="M0 653v144l1366 655v-131l-1229 -596l1229 -600v-131z" />
<glyph unicode="=" horiz-adv-x="1366" d="M0 354v119h1366v-119h-1366zM0 715v121h1366v-121h-1366z" />
<glyph unicode="&#x3e;" horiz-adv-x="1366" d="M0 -6v131l1229 600l-1229 596v131l1366 -655v-144z" />
<glyph unicode="?" horiz-adv-x="981" d="M137 1083q0 191 122 295q108 92 276 92q183 0 299 -115q112 -112 112 -280q0 -137 -69 -241q-44 -66 -172 -183q-105 -95 -123.5 -129.5t-18.5 -134.5v-41h-129v70q0 104 24 150q27 54 138 156.5t151 158.5q68 93 68 194t-62 178q-77 97 -223 97q-141 0 -211 -93 q-57 -74 -57 -186q0 -105 51 -197l-153 46q-23 99 -23 163zM422 0v238h160v-238h-160z" />
<glyph unicode="@" horiz-adv-x="1835" d="M141 479q0 390 268 679q276 300 672 300q288 0 453 -165q160 -159 160 -425q0 -273 -144.5 -497t-322.5 -224q-81 0 -127 54q-37 43 -37 137q-44 -62 -84 -98q-102 -93 -227 -93q-95 0 -164 64q-94 87 -94 266q0 224 129 401t297 177q75 0 133 -37q66 -43 112 -158 l35 148h121l-68 -299q-59 -263 -59 -357q0 -106 74 -106q101 0 211 182q120 201 120 442q0 225 -137 360q-142 138 -387 138q-343 0 -591 -265t-248 -628q0 -305 208 -480q190 -159 478 -159q392 0 696 299l55 -65q-327 -324 -747 -324q-311 0 -528 170q-257 200 -257 563z M633 483q0 -129 70 -187q46 -38 110 -38q132 0 227 158q81 132 82 295q2 120 -59 183q-51 52 -129 52q-128 0 -218 -154q-83 -142 -83 -309z" />
<glyph unicode="A" horiz-adv-x="1323" d="M20 0l590 1446h115l575 -1446h-149l-166 436h-647l-164 -436h-154zM383 547h561l-278 737z" />
<glyph unicode="B" horiz-adv-x="1366" d="M166 0v1446h598q247 0 356 -96q113 -100 113 -265q0 -140 -88 -225q-67 -63 -158 -80q-4 -2 -12 -2q8 -4 16 -4q291 -66 291 -364q0 -141 -69 -243q-88 -128 -269 -157q-64 -10 -350 -10h-428zM303 125h367q132 0 176 2q299 14 299 276q0 145 -103 228q-55 45 -124 63 q-77 21 -216 21h-399v-590zM303 834h406q222 0 301 65q82 69 82 188q0 117 -84 181q-73 55 -275 55h-430v-489z" />
<glyph unicode="C" horiz-adv-x="1339" d="M102 713q0 299 119 500q160 270 500 270q252 0 389 -137q99 -99 143 -248l-120 -25q-43 139 -142.5 214t-263.5 75q-231 0 -356 -170t-125 -459q0 -315 121 -477q126 -170 383 -170q138 0 227 61q99 69 151 201l119 -24q-123 -361 -514 -361q-299 0 -463 193 q-168 197 -168 557z" />
<glyph unicode="D" horiz-adv-x="1409" d="M166 0v1446h385q282 0 391 -43q159 -63 259 -242q104 -186 104 -434q0 -201 -69 -364.5t-189 -258.5q-91 -70 -211 -90q-83 -14 -295 -14h-375zM305 123h217q288 0 381 43q111 51 184 193q80 156 80 362q0 192 -71 345q-75 162 -203 218q-79 35 -336 35h-252v-1196z" />
<glyph unicode="E" horiz-adv-x="1237" d="M166 0v1446h944v-127h-807v-514h731v-127h-731v-551h858v-127h-995z" />
<glyph unicode="F" horiz-adv-x="1151" d="M166 0v1446h946v-121h-813v-489h729v-119h-729v-717h-133z" />
<glyph unicode="G" horiz-adv-x="1452" d="M102 711q0 344 168 553q176 219 482 219q254 0 391 -137q94 -95 143 -248l-121 -25q-45 140 -145 215q-103 78 -260 78q-228 0 -368 -171q-144 -176 -144 -476q0 -286 121 -456q127 -179 356 -179q234 0 347 188q83 139 83 333v26h-444v125h563v-756h-119v242 q-59 -155 -197 -226q-103 -53 -241 -53q-290 0 -457 216q-158 205 -158 532z" />
<glyph unicode="H" horiz-adv-x="1493" d="M166 0v1446h135v-647h889v647h137v-1446h-137v678h-889v-678h-135z" />
<glyph unicode="I" horiz-adv-x="469" d="M166 0v1446h137v-1446h-137z" />
<glyph unicode="J" horiz-adv-x="1024" d="M27 397l145 33q-4 -45 -4 -63q0 -279 299 -279q164 0 220 118q31 67 34 228q2 110 2 234v778h135v-848q0 -302 -22 -383q-69 -248 -377 -248q-213 0 -324 111q-64 64 -88 154q-14 54 -20 165z" />
<glyph unicode="K" horiz-adv-x="1366" d="M166 0v1446h139v-807l787 807h188l-565 -572l614 -874h-168l-540 782l-316 -317v-465h-139z" />
<glyph unicode="L" horiz-adv-x="1151" d="M166 0v1448h139v-1321h799v-127h-938z" />
<glyph unicode="M" horiz-adv-x="1622" d="M166 0v1446h162l489 -1227l467 1227h170v-1446h-133l10 1227l-473 -1227h-94l-481 1227l16 -1227h-133z" />
<glyph unicode="N" horiz-adv-x="1450" d="M166 0v1446h133l862 -1237l-12 1237h135v-1446h-135l-850 1249v-1249h-133z" />
<glyph unicode="O" horiz-adv-x="1450" d="M102 725q0 322 152 529q169 229 475 229q326 0 490 -252q129 -199 129 -489v-9q-3 -368 -185 -581q-160 -189 -434 -189q-277 0 -444 197q-183 214 -183 565zM248 723q0 -247 99 -419q126 -218 376 -218q285 0 406 279q71 164 71 371q0 240 -97 410q-126 218 -374 218 q-251 0 -379 -217q-102 -173 -102 -424z" />
<glyph unicode="P" horiz-adv-x="1280" d="M166 0v1446h493q192 0 251 -5q92 -7 151 -34q88 -41 140 -132q54 -96 54 -224q0 -319 -296 -384q-77 -16 -343 -16h-321v-651h-129zM295 772h375q180 0 239 10q213 37 213 271q0 160 -104 231q-49 33 -115 41q-55 6 -258 6h-350v-559z" />
<glyph unicode="Q" horiz-adv-x="1450" d="M102 709q0 317 152 530q173 244 485 244q310 0 475 -242q138 -203 138 -502q0 -294 -123 -501l194 -179l-86 -94l-182 170q-169 -172 -426 -172q-322 0 -489 246q-138 202 -138 500zM246 711q0 -258 108 -430q129 -203 373 -203q208 0 334 145l-170 156l86 94l153 -143 q80 153 82 377v15q0 240 -94 412q-126 230 -383 230q-248 0 -380 -215q-109 -178 -109 -438z" />
<glyph unicode="R" horiz-adv-x="1323" d="M166 0v1448h405q201 0 264 -5q77 -5 142 -28q254 -89 254 -383q0 -174 -109 -278q-99 -96 -319 -113l469 -641h-172l-457 641h-340v-641h-137zM303 760h340q172 0 244 14q209 42 209 264q0 234 -211 277q-51 10 -242 10h-340v-565z" />
<glyph unicode="S" horiz-adv-x="1237" d="M100 365l119 22q30 -159 143 -235q104 -70 275 -70q196 0 305 96q96 85 96 211q0 122 -88 195q-65 53 -340 125q-202 52 -295 118q-141 100 -141 279q0 196 154 295q127 82 323 82q368 0 498 -318l-113 -43q-42 102 -99 153q-104 95 -290 95q-136 0 -228 -57 q-112 -69 -112 -201q0 -179 244 -252q124 -33 293 -82q334 -111 334 -383q0 -170 -132 -292q-150 -140 -409 -140q-206 0 -340 88q-158 104 -197 314z" />
<glyph unicode="T" horiz-adv-x="1110" d="M31 1325v121h1048v-121h-456v-1325h-138v1325h-454z" />
<glyph unicode="U" horiz-adv-x="1409" d="M164 776v670h135v-860q0 -143 9 -205q15 -92 61 -154q103 -137 336 -137q109 0 188 31q155 60 199 239q14 59 14 189v897h137v-658q0 -335 -15 -436q-22 -142 -108 -235q-142 -154 -411 -154q-189 0 -322 79q-141 82 -190 234q-24 74 -30 171q-3 66 -3 329z" />
<glyph unicode="V" horiz-adv-x="1237" d="M20 1446h152l442 -1258l457 1258h146l-543 -1446h-123z" />
<glyph unicode="W" horiz-adv-x="1792" d="M20 1446h148l340 -1200l344 1200h94l357 -1200l329 1200h140l-414 -1446h-111l-346 1169l-344 -1169h-108z" />
<glyph unicode="X" horiz-adv-x="1366" d="M43 0l549 778l-473 668h174l393 -584l401 584h166l-475 -668l545 -778h-170l-467 694l-485 -694h-158z" />
<glyph unicode="Y" horiz-adv-x="1280" d="M20 1446h160l447 -719l465 719h165l-565 -848v-598h-133v598z" />
<glyph unicode="Z" horiz-adv-x="1194" d="M59 0v90l893 1231h-839v125h1022v-96l-881 -1227h868v-123h-1063z" />
<glyph unicode="[" horiz-adv-x="555" d="M152 -295v1917h348v-109h-224v-1699h224v-109h-348z" />
<glyph unicode="\" horiz-adv-x="981" d="M20 1446h156l785 -1446h-152z" />
<glyph unicode="]" horiz-adv-x="555" d="M55 -186h224v1699h-224v109h348v-1917h-348v109z" />
<glyph unicode="^" horiz-adv-x="1493" d="M319 717l369 729h129l357 -729h-156l-268 559l-275 -559h-156z" />
<glyph unicode="_" horiz-adv-x="1024" d="M-20 -154h1064v-102h-1064v102z" />
<glyph unicode="`" horiz-adv-x="555" d="M49 1430h227l230 -287h-109z" />
<glyph unicode="a" horiz-adv-x="1024" d="M92 246q0 152 154 233q98 52 385 117l117 27v49q0 225 -238 225q-159 0 -217 -80q-37 -51 -39 -158l-133 23q18 107 57 168q98 151 328 151q291 0 344 -190q12 -44 12 -188v-316q0 -138 19 -171q24 -40 124 -40h5v-96q-133 0 -187 25q-75 35 -75 137v18q-5 -8 -9 -20 q-41 -86 -138 -135q-91 -45 -202 -45q-162 0 -244 94q-63 73 -63 172zM211 248q0 -66 46 -110q53 -52 149 -52q153 0 260 107q82 81 82 251v72l-62 -14q-39 -9 -242 -66q-111 -31 -158 -60q-75 -48 -75 -128z" />
<glyph unicode="b" d="M156 0v1446h116v-637q95 188 299 188q189 0 301 -157q105 -146 105 -369q0 -199 -86 -331q-106 -163 -313 -163q-220 0 -306 197v-174h-116zM272 494q0 -408 289 -408q282 0 287 383v14q0 183 -76 293q-80 114 -219 113q-67 0 -123 -29q-158 -81 -158 -366z" />
<glyph unicode="c" horiz-adv-x="981" d="M90 481q0 240 133 381q128 137 334 137q284 0 373 -245l-107 -25q-65 162 -268 162q-147 0 -240 -103q-98 -109 -98 -296q0 -154 62 -262q84 -148 262 -148q150 0 233 90q27 29 47 70l109 -25q-17 -36 -76 -117q-115 -125 -315 -125q-222 0 -343 159q-106 138 -106 347z " />
<glyph unicode="d" d="M90 489q0 231 124 373q118 135 298 135q105 0 184 -53q74 -49 97 -125v627h118v-1446h-118v176q-30 -88 -110 -142q-82 -57 -189 -57q-176 0 -288 139q-116 142 -116 373zM221 489q0 -151 53 -253q75 -144 238 -144q278 0 285 387v18q0 196 -64 285q-75 105 -217 105 q-140 0 -220 -114q-75 -108 -75 -284z" />
<glyph unicode="e" d="M90 496q0 232 136 373q127 130 315 130q209 0 333 -160q107 -138 107 -328v-24h-758v-23q0 -98 31 -179q77 -201 301 -201q217 0 291 201l115 -33q-107 -277 -406 -277q-229 0 -354 158q-111 141 -111 363zM225 586h619q-19 154 -103 231q-79 74 -202 74 q-126 0 -211.5 -83t-102.5 -222z" />
<glyph unicode="f" horiz-adv-x="618" d="M47 874v103h195v186q0 152 14 193q42 119 203 119q72 0 123 -23l-23 -100q-39 14 -90 14q-70 0 -94 -55q-13 -28 -13 -137v-197h207v-103h-207v-874h-120v874h-195z" />
<glyph unicode="g" horiz-adv-x="1110" d="M90 496q0 238 122 374q116 129 304 129q123 0 213 -61q82 -56 109 -141v180h116v-873q0 -221 -12 -301q-19 -119 -86 -188q-110 -115 -338 -115q-179 0 -291 86q-115 89 -129 262l125 25q19 -117 62 -172q74 -94 247 -94q256 0 293 215q13 71 13 317v49q-19 -62 -58 -104 q-97 -104 -266 -104q-202 0 -317 152q-107 141 -107 364zM213 498q0 -208 90 -316q79 -94 221 -94q306 0 310 391v8q0 408 -302 408q-144 0 -229 -98q-90 -105 -90 -299z" />
<glyph unicode="h" d="M154 0v1446h120v-625q87 176 304 176q108 0 189.5 -49.5t115.5 -134.5q28 -73 28 -262v-551h-120v530q0 138 -5 154q-18 203 -225 203q-222 0 -272 -215q-15 -61 -15 -250v-422h-120z" />
<glyph unicode="i" horiz-adv-x="426" d="M154 0v977h118v-977h-118zM154 1206v187h118v-187h-118z" />
<glyph unicode="j" horiz-adv-x="426" d="M-98 -369q78 -49 159 -49q67 0 82 51q11 36 11 326v1018h118v-858q0 -376 -4 -443q-12 -200 -194 -200q-90 0 -172 41v114zM154 1206v187h118v-187h-118z" />
<glyph unicode="k" horiz-adv-x="1024" d="M154 0v1446h118v-983l549 514h152l-408 -389l436 -588h-147l-373 506l-209 -199v-307h-118z" />
<glyph unicode="l" horiz-adv-x="426" d="M154 0v1446h120v-1446h-120z" />
<glyph unicode="m" horiz-adv-x="1579" d="M154 0v975h120v-201q56 223 289 223q101 0 171 -50q90 -64 100 -193q15 66 49 116q85 127 254 127q150 0 223 -92q43 -55 55 -152q8 -68 8 -272v-481h-120v528q0 150 -5 194q-6 59 -30 95q-47 70 -152 70q-123 0 -196 -101q-43 -59 -58 -131q-14 -68 -14 -249v-406h-119 v541q0 125 -8 184q-23 162 -182 162q-144 0 -215 -131q-34 -62 -43 -150q-7 -58 -7 -215v-391h-120z" />
<glyph unicode="n" d="M154 0v975h120v-174q28 82 100 135q84 61 206 61q177 0 266 -116q44 -59 56 -140q9 -60 9 -235v-506h-120v506q0 157 -5 201q-6 61 -32 98q-59 84 -191 84q-144 0 -227 -111q-43 -57 -54 -129q-8 -51 -8 -221v-428h-120z" />
<glyph unicode="o" d="M90 475q0 213 104 358q120 166 341 166q216 0 336 -158q104 -138 106 -347v-7q0 -222 -119 -364q-123 -148 -328 -148q-206 0 -326 147q-114 138 -114 353zM219 473q0 -197 93 -300q82 -91 218 -91q156 0 239 113q78 105 79 284v7q0 129 -37 223q-75 188 -274 188 q-140 0 -226 -100q-92 -109 -92 -324z" />
<glyph unicode="p" d="M156 -518v1495h118v-160q24 55 60 90q90 90 235 90q214 0 323 -180q85 -139 85 -332q0 -210 -105 -353q-113 -155 -301 -155q-218 0 -297 185v-680h-118zM274 502v-36q0 -103 15 -161q56 -213 260 -213q160 0 241 143q62 111 62 265q0 168 -74 272q-81 115 -229 115 q-265 0 -275 -385z" />
<glyph unicode="q" horiz-adv-x="1024" d="M90 494q0 126 35 227q54 156 181 226q90 50 194 50q224 0 295 -176v154h116v-1493h-116v688q-78 -193 -301 -193q-184 0 -297 153q-107 144 -107 364zM215 500q0 -174 79 -288q84 -122 226 -122q137 0 211 109q66 96 66 286q0 207 -70 299q-75 101 -211 101 q-143 0 -224 -110q-77 -104 -77 -275z" />
<glyph unicode="r" horiz-adv-x="641" d="M156 0v977h118v-156q82 172 285 172q31 0 68 -6v-108q-37 6 -74 6q-129 0 -201 -78q-53 -57 -67 -149q-11 -62 -11 -236v-422h-118z" />
<glyph unicode="s" horiz-adv-x="936" d="M84 244l102 35q20 -78 83 -131q77 -64 192 -64q120 0 187 58q61 52 61 134q0 131 -209 175l-117 24q-254 57 -254 252q0 103 65 174q91 98 285 98q137 0 228 -55.5t120 -165.5l-104 -26q-22 69 -72 100q-69 43 -178 43q-225 0 -225 -164q0 -72 61 -110q42 -25 144 -48 l102 -22q140 -31 206 -103.5t66 -173.5q0 -119 -88 -203q-101 -96 -278 -96q-155 0 -259 87q-88 73 -118 182z" />
<glyph unicode="t" horiz-adv-x="598" d="M31 874v103h205v416h116v-416h215v-103h-215v-667q0 -119 80 -119q55 0 135 62v-121q-70 -47 -155 -47q-121 0 -154 72q-22 48 -22 212v608h-205z" />
<glyph unicode="u" d="M154 498v479h120v-506q0 -201 29 -271q45 -112 193 -112q129 0 206 82q59 62 77 154q12 63 12 223v430h120v-977h-120v176q-22 -53 -50 -88q-87 -111 -260 -111q-217 0 -293 181q-34 83 -34 340z" />
<glyph unicode="v" horiz-adv-x="854" d="M20 977h121l271 -795l301 795h118l-374 -977h-99z" />
<glyph unicode="w" horiz-adv-x="1409" d="M43 977h117l262 -789l240 789h102l242 -789l241 789h119l-309 -977h-103l-239 805l-240 -805h-102z" />
<glyph unicode="x" horiz-adv-x="938" d="M43 0l358 508l-329 469h141l256 -373l264 373h129l-327 -469l360 -508h-139l-287 416l-295 -416h-131z" />
<glyph unicode="y" horiz-adv-x="895" d="M20 -332q69 -49 127 -49q44 0 69 25t52 92q23 52 51 123l52 141l-338 977h117l284 -832l318 832h122l-440 -1118q-79 -201 -102 -242q-63 -111 -180 -111q-76 0 -132 39v123z" />
<glyph unicode="z" horiz-adv-x="811" d="M57 0v76l529 796h-484v105h654v-72l-529 -796h543v-109h-713z" />
<glyph unicode="{" horiz-adv-x="725" d="M176 631v67q86 27 115 95q24 58 24 237v178q0 214 47.5 293.5t116.5 106.5q44 17 158 26v-69q-132 -34 -170 -116q-27 -58 -27 -224v-95q0 -262 -24 -338q-29 -91 -140 -130q79 -27 117 -80q34 -48 43 -122q6 -58 6 -241v-117q0 -164 29 -223q38 -78 166 -117v-69 q-108 11 -146 22q-61 19 -104 68q-46 53 -60 133q-10 53 -10 174v186q0 188 -22 244q-31 76 -119 111z" />
<glyph unicode="|" horiz-adv-x="469" d="M174 -512v2048h121v-2048h-121z" />
<glyph unicode="}" horiz-adv-x="725" d="M88 -238q132 34 170 116q27 58 27 224v95q0 262 24 339q29 90 140 130q-79 26 -117 79q-34 48 -43 122q-6 58 -6 241v117q0 164 -29 223q-38 78 -166 117v69q108 -11 146 -22q61 -19 104 -68q46 -52 60 -133q10 -52 10 -174v-186q0 -188 22 -244q31 -76 119 -111v-67 q-86 -26 -115 -94q-24 -59 -24 -238v-178q0 -214 -47.5 -293t-116.5 -107q-44 -17 -158 -26v69z" />
<glyph unicode="~" horiz-adv-x="1493" d="M274 580q105 163 252 163q79 0 232 -71l65 -31q88 -41 133 -41q95 0 199 129l64 -113q-124 -157 -263 -157q-67 0 -198 63l-60 29q-106 51 -170 51q-55 0 -94 -30q-26 -21 -92 -103z" />
<glyph unicode="&#xa1;" horiz-adv-x="426" d="M96 1221v237h156v-237h-156zM106 0v829l19 269h96l19 -269v-829h-134z" />
<glyph unicode="&#xa2;" horiz-adv-x="981" d="M90 479q0 218 112 357q108 134 287 157v193h101v-189q254 -16 340 -245l-107 -25q-57 144 -233 160v-805q114 12 184 88q23 25 47 70l109 -25q-17 -36 -76 -117q-99 -108 -264 -123v-206h-101v206q-197 19 -304 173q-95 136 -95 331zM217 489q0 -139 53 -244 q70 -141 219 -161v799q-121 -23 -194 -122q-78 -107 -78 -272z" />
<glyph unicode="&#xa3;" horiz-adv-x="1237" d="M86 154q0 68 53.5 111.5t147.5 43.5q129 0 225 -57q39 80 39 149q0 95 -82 177h-270v106h190q-53 40 -119 117q-125 145 -125 276q0 158 130 263.5t327 105.5q212 0 340 -113q109 -95 127 -274l-135 -29q-4 134 -82 207q-92 86 -252 86q-133 0 -222 -65q-93 -68 -93 -179 q0 -91 82 -190q86 -86 202 -205h310v-106h-246q53 -96 53 -183q0 -103 -53 -180q55 -34 132 -66q88 -36 128 -36q82 0 110 83q17 52 19 189l135 -14q-11 -377 -272 -377q-119 0 -316 110q-103 -112 -266 -112q-101 0 -159 44t-58 118zM193 150q0 -58 96 -58q109 0 182 60 q-80 53 -186 53q-92 0 -92 -55z" />
<glyph unicode="&#xa4;" horiz-adv-x="1366" d="M119 223l151 150q-58 87 -77 134q-35 83 -35 189q0 172 112 320l-149 149l92 92l149 -149q158 113 324 113q165 0 320 -111l149 150l94 -95l-151 -149q110 -146 110 -324q0 -173 -112 -319l151 -154l-94 -92l-149 154q-81 -56 -130 -76q-83 -35 -192 -35q-107 0 -188 33 q-52 21 -132 78l-151 -150zM283 694q0 -169 115.5 -286t287.5 -117q167 0 281 113q116 117 116 292q0 179 -121 295q-115 109 -274 109q-167 0 -283 -110q-122 -115 -122 -296z" />
<glyph unicode="&#xa5;" horiz-adv-x="1280" d="M20 1446h160l449 -713l463 713h165l-417 -629h295v-108h-369l-76 -121h445v-109h-443v-479h-133v479h-416v109l418 4l-72 117h-346v108h277z" />
<glyph unicode="&#xa6;" horiz-adv-x="469" d="M174 -358v716h121v-716h-121zM174 666v716h121v-716h-121z" />
<glyph unicode="&#xa7;" d="M78 33l96 94q166 -166 373 -166q118 0 183 61q56 52 56 130q0 70 -56 115q-43 33 -195 102q-237 106 -319 174q-114 93 -114 227q0 96 57 180q64 96 179 137q-143 91 -143 230q0 111 81 194q92 93 242 93q186 0 385 -177l-94 -92q-143 144 -299 144q-86 0 -135 -47 q-45 -43 -45 -111q0 -70 60 -116q45 -35 194 -99q212 -92 284 -154q103 -87 103 -225q0 -101 -56 -186q-57 -88 -159 -133q166 -87 166 -254q0 -135 -101 -226q-106 -96 -278 -96q-264 0 -465 201zM236 772q0 -73 67 -127q111 -89 301 -160l55 -20q181 117 181 254 q0 78 -54 131q-27 27 -143 84q-164 80 -201 88q-206 -93 -206 -250z" />
<glyph unicode="&#xa8;" horiz-adv-x="555" d="M39 1192v188h125v-188h-125zM391 1192v188h125v-188h-125z" />
<glyph unicode="&#xa9;" horiz-adv-x="1706" d="M125 721q0 308 212.5 519.5t518.5 211.5t516.5 -210.5t210.5 -522.5q0 -216 -117 -400q-91 -143 -248 -231q-169 -94 -366 -94q-293 0 -506 202q-221 211 -221 525zM190 719q0 -272 191 -464q194 -196 475 -196q268 0 460 183q199 190 202 477q2 274 -185 468 q-192 199 -477 199q-277 0 -471.5 -193.5t-194.5 -473.5zM395 725q0 198 135.5 336.5t339.5 138.5q221 0 379 -190l-86 -78q-136 153 -291 153q-149 0 -253.5 -102.5t-104.5 -253.5q0 -160 109 -264q104 -98 249 -98q160 0 291 151l86 -74q-29 -37 -50 -57q-40 -39 -89 -68 q-117 -67 -246 -67q-190 0 -325 127q-144 135 -144 346z" />
<glyph unicode="&#xaa;" horiz-adv-x="641" d="M53 991q0 99 99 152q60 32 239 74l62 14v20q0 127 -136 127q-92 0 -123 -47q-18 -28 -20 -98l-104 16q34 215 247 215q126 0 185 -63q43 -47 43 -180v-191q0 -81 9 -96q14 -24 81 -23v-80h-21q-127 0 -155 70l-2 14l-4 -6q-60 -90 -201 -90q-104 0 -157 61 q-42 47 -42 111zM147 993q0 -88 109 -88q88 0 152 64q45 45 45 143v31l-23 -6q-87 -23 -217 -62q-66 -26 -66 -82z" />
<glyph unicode="&#xab;" horiz-adv-x="768" d="M78 633l241 379l99 -60l-203 -319l203 -289l-99 -63zM354 633l244 379l96 -60l-202 -319l202 -289l-96 -63z" />
<glyph unicode="&#xac;" horiz-adv-x="1366" d="M0 537v120h1366v-657h-123v537h-1243z" />
<glyph unicode="&#xad;" horiz-adv-x="725" d="M78 600v133h571v-133h-571z" />
<glyph unicode="&#xae;" horiz-adv-x="1706" d="M123 723q0 310 217 522q212 207 512 207q313 0 525 -217q208 -213 206 -516q-1 -304 -212.5 -514.5t-520.5 -210.5q-293 0 -506 202q-221 212 -221 527zM188 723q0 -278 194.5 -471t469.5 -193q280 0 472 192t194 470q1 276 -188 469q-192 196 -474 196 q-281 0 -474.5 -194t-193.5 -469zM559 270v912h281q160 0 213 -21q139 -54 139 -207q0 -91 -60 -150q-55 -54 -145 -69q72 -27 103 -71t45 -129q19 -121 26 -152q13 -57 41 -113h-153q-21 42 -37 125q-9 62 -23 146q-19 97 -81 130q-45 23 -150 23h-66v-424h-133zM694 801 h154q209 0 209 143q0 63 -41.5 99t-196.5 36h-125v-278z" />
<glyph unicode="&#xaf;" horiz-adv-x="555" d="M39 1192v129h477v-129h-477z" />
<glyph unicode="&#xb0;" horiz-adv-x="725" d="M61 1231q0 124 88.5 212.5t212.5 88.5q125 0 213.5 -88.5t88.5 -212.5q0 -125 -88.5 -213t-213.5 -88q-124 0 -212.5 88t-88.5 213zM184 1231q0 -74 52.5 -126t125.5 -52q74 0 126.5 52t52.5 126t-52.5 126t-126.5 52q-73 0 -125.5 -52t-52.5 -126z" />
<glyph unicode="&#xb1;" horiz-adv-x="1366" d="M82 0v121h1200v-121h-1200zM82 776v121h543v524h120v-524h537v-121h-537v-524h-120v524h-543z" />
<glyph unicode="&#xb2;" horiz-adv-x="801" d="M82 1196q0 123 86 197q82 71 213 71q150 0 234 -86q77 -80 77 -207q0 -147 -136 -293q-98 -105 -306 -245h414v-90h-580v86q145 91 281 202q108 90 153 150q70 93 70 195q0 97 -62 151q-56 49 -147 49q-98 0 -154 -62q-49 -54 -49 -126z" />
<glyph unicode="&#xb3;" horiz-adv-x="805" d="M61 813l107 37q-10 -232 211 -232q201 0 201 175q0 82 -48.5 128t-173.5 46h-133v90h117q223 0 223 153q0 72 -48 118q-51 48 -136 48q-82 0 -135 -48q-60 -54 -58 -150l-112 28q63 258 305 258q122 0 199 -62q86 -70 86 -194q0 -154 -140 -192l15 -4q143 -41 143 -211 q0 -121 -81 -197q-84 -78 -224 -78q-200 0 -281 152q-25 48 -37 135z" />
<glyph unicode="&#xb4;" horiz-adv-x="555" d="M49 1143l230 287h227l-348 -287h-109z" />
<glyph unicode="&#xb5;" d="M154 -494v1471h120v-565q0 -121 27 -185q58 -137 219 -137q111 0 185 80q57 63 74 151q12 59 12 203v453h120v-977h-120v178q-42 -93 -110 -145.5t-169 -52.5q-138 0 -238 131v-605h-120z" />
<glyph unicode="&#xb6;" horiz-adv-x="1366" d="M184 1049q0 144 80 245q120 152 371 152h455v-90h-70v-1698h-94v1698h-322v-1698h-94v1018q-151 23 -229 108q-97 105 -97 265z" />
<glyph unicode="&#xb7;" horiz-adv-x="342" d="M90 549v237h162v-237h-162z" />
<glyph unicode="&#xb8;" horiz-adv-x="555" d="M135 -145l84 145h49l-49 -96q31 6 57 6q64 0 104 -36t40 -95q0 -76 -60 -122t-147 -46q-1 0 -78 6v55q49 -4 66 -4q114 0 114 80q0 78 -100 78q-29 0 -80 -21v50z" />
<glyph unicode="&#xb9;" horiz-adv-x="692" d="M209 1225v88q107 0 141 45q21 27 19 90h98v-905h-98v706l-9 -4q-50 -25 -151 -20z" />
<glyph unicode="&#xba;" horiz-adv-x="682" d="M61 1135q0 133 67 224q77 105 214 105t213 -99q67 -87 68 -220q0 -144 -77 -236t-206 -92t-205 91q-74 88 -74 227zM162 1133q0 -230 178 -230q179 0 182 234q3 243 -178 243q-182 0 -182 -247z" />
<glyph unicode="&#xbb;" horiz-adv-x="768" d="M74 342l202 317l-202 289l96 64l242 -353l-242 -378zM350 342l203 317l-203 289l99 64l241 -353l-241 -378z" />
<glyph unicode="&#xbc;" horiz-adv-x="1815" d="M209 1225v88q107 0 141 45q21 27 19 90h98v-905h-98v706l-9 -4q-50 -25 -151 -20zM500 -43l721 1577l84 -39l-723 -1577zM1102 221v78l391 606h100v-594h138v-90h-138v-221h-98v221h-393zM1219 311h276v422z" />
<glyph unicode="&#xbd;" horiz-adv-x="1825" d="M211 1225v88q107 0 141 45q21 27 19 90h98v-905h-98v706l-9 -4q-50 -25 -151 -20zM455 -43l721 1577l84 -39l-723 -1575zM1106 653q0 124 86 197q82 72 213 72q150 0 234 -87q77 -80 77 -206q0 -147 -136 -294q-98 -105 -306 -245h414v-90h-580v86q145 91 281 203 q108 89 153 150q70 92 70 194q0 97 -62 151q-56 50 -147 50q-98 0 -154 -63q-49 -54 -49 -126z" />
<glyph unicode="&#xbe;" horiz-adv-x="1815" d="M61 813l107 37q-10 -232 211 -232q201 0 201 175q0 82 -48.5 128t-173.5 46h-133v90h117q223 0 223 153q0 72 -48 118q-51 48 -136 48q-82 0 -135 -48q-60 -54 -58 -150l-112 28q63 258 305 258q122 0 199 -62q86 -70 86 -194q0 -154 -140 -192l15 -4q143 -41 143 -211 q0 -121 -81 -197q-84 -78 -224 -78q-200 0 -281 152q-25 48 -37 135zM571 -43l721 1579l84 -41l-721 -1577zM1102 221v78l391 606h100v-594h138v-90h-138v-221h-98v221h-393zM1219 311h276v422z" />
<glyph unicode="&#xbf;" horiz-adv-x="981" d="M35 369q0 138 69 242q43 65 172 184q104 95 123 129.5t19 134.5v41h129v-70q0 -105 -24 -151q-26 -53 -137.5 -155.5t-151.5 -158.5q-68 -93 -68 -194t61 -178q78 -97 222 -97q142 0 213 93q57 74 57 186q0 105 -51 196l153 -45q23 -99 23 -164q0 -190 -122 -294 q-108 -93 -276 -93q-184 0 -300 116q-111 111 -111 278zM399 1208v238h160v-238h-160z" />
<glyph unicode="&#xc0;" horiz-adv-x="1323" d="M20 0l590 1446h115l575 -1446h-149l-166 436h-647l-164 -436h-154zM328 1833h217l203 -256h-119zM383 547h561l-278 737z" />
<glyph unicode="&#xc1;" horiz-adv-x="1323" d="M20 0l590 1446h115l575 -1446h-149l-166 436h-647l-164 -436h-154zM383 547h561l-278 737zM571 1577l201 256h217l-301 -256h-117z" />
<glyph unicode="&#xc2;" horiz-adv-x="1323" d="M20 0l590 1446h115l575 -1446h-149l-166 436h-647l-164 -436h-154zM383 547h561l-278 737zM410 1581l215 252h86l213 -252h-101l-159 115l-158 -115h-96z" />
<glyph unicode="&#xc3;" horiz-adv-x="1323" d="M20 0l590 1446h115l575 -1446h-149l-166 436h-647l-164 -436h-154zM324 1612q71 211 204 211q51 0 134 -45q126 -70 151 -70q59 0 113 107l84 -37v-11q-89 -182 -195 -182q-59 0 -170 60q-100 53 -131 53q-70 0 -108 -113zM383 547h561l-278 737z" />
<glyph unicode="&#xc4;" horiz-adv-x="1323" d="M20 0l590 1446h115l575 -1446h-149l-166 436h-647l-164 -436h-154zM377 1608v196h137v-196h-137zM383 547h561l-278 737zM825 1608v196h138v-196h-138z" />
<glyph unicode="&#xc5;" horiz-adv-x="1323" d="M20 0l590 1446h115l575 -1446h-149l-166 436h-647l-164 -436h-154zM383 547h561l-278 737zM508 1696q0 67 47.5 114.5t114.5 47.5t115.5 -47.5t48.5 -114.5q0 -68 -48.5 -116t-115.5 -48q-68 0 -115 48t-47 116zM582 1698q0 -37 25 -61.5t61 -24.5q35 0 60.5 25t25.5 61 q0 35 -25 60.5t-61 25.5t-61 -25.5t-25 -60.5z" />
<glyph unicode="&#xc6;" horiz-adv-x="2048" d="M0 0l926 1446h1024v-125h-842v-520h756v-127h-756v-551h881v-123h-1018v420h-543l-264 -420h-164zM508 547h463v745z" />
<glyph unicode="&#xc7;" horiz-adv-x="1339" d="M102 713q0 299 119 500q160 270 500 270q252 0 389 -137q99 -99 143 -248l-120 -25q-44 141 -143.5 215t-262.5 74q-231 0 -356 -170t-125 -459q0 -315 121 -477q126 -170 383 -170q138 0 227 61q99 69 151 201l119 -24q-122 -357 -502 -361l-30 -59q30 6 57 6 q64 0 103.5 -36t39.5 -95q0 -76 -59.5 -122t-146.5 -46q-1 0 -78 6v55q49 -4 65 -4q115 0 115 80q0 78 -100 78q-29 0 -80 -21v50l63 108q-272 16 -424 193q-168 196 -168 557z" />
<glyph unicode="&#xc8;" horiz-adv-x="1237" d="M166 0v1446h944v-127h-807v-514h731v-127h-731v-551h858v-127h-995zM285 1833h217l203 -256h-119z" />
<glyph unicode="&#xc9;" horiz-adv-x="1237" d="M166 0v1446h944v-127h-807v-514h731v-127h-731v-551h858v-127h-995zM571 1577l201 256h217l-301 -256h-117z" />
<glyph unicode="&#xca;" horiz-adv-x="1237" d="M166 0v1446h944v-127h-807v-514h731v-127h-731v-551h858v-127h-995zM367 1581l215 252h86l213 -252h-101l-159 115l-158 -115h-96z" />
<glyph unicode="&#xcb;" horiz-adv-x="1237" d="M166 0v1446h944v-127h-807v-514h731v-127h-731v-551h858v-127h-995zM328 1608v196h137v-196h-137zM776 1608v196h137v-196h-137z" />
<glyph unicode="&#xcc;" horiz-adv-x="469" d="M-98 1833h217l203 -256h-119zM166 0v1446h137v-1446h-137z" />
<glyph unicode="&#xcd;" horiz-adv-x="469" d="M145 1577l201 256h217l-301 -256h-117zM166 0v1446h137v-1446h-137z" />
<glyph unicode="&#xce;" horiz-adv-x="469" d="M-16 1581l215 252h86l213 -252h-101l-159 115l-158 -115h-96zM166 0v1446h137v-1446h-137z" />
<glyph unicode="&#xcf;" horiz-adv-x="469" d="M-55 1608v196h137v-196h-137zM166 0v1446h137v-1446h-137zM393 1608v196h137v-196h-137z" />
<glyph unicode="&#xd0;" horiz-adv-x="1409" d="M0 719v110h166v617h385q282 0 391 -43q159 -63 259 -243q104 -187 104 -433q0 -201 -69 -364.5t-189 -258.5q-91 -70 -211 -90q-83 -14 -295 -14h-375v719h-166zM305 123h217q288 0 381 43q111 51 184 193q80 155 80 360q0 192 -71 346q-75 162 -203 219q-78 35 -336 35 h-252v-490h453v-110h-453v-596z" />
<glyph unicode="&#xd1;" horiz-adv-x="1450" d="M166 0v1446h133l862 -1237l-12 1237h135v-1446h-135l-850 1249v-1249h-133zM387 1612q72 211 205 211q51 0 133 -45q127 -70 152 -70q59 0 112 107l84 -37v-11q-89 -182 -194 -182q-59 0 -170 60q-100 53 -131 53q-70 0 -109 -113z" />
<glyph unicode="&#xd2;" horiz-adv-x="1450" d="M102 725q0 322 152 529q169 229 475 229q326 0 490 -252q131 -202 129 -498q-3 -368 -185 -581q-160 -189 -434 -189q-277 0 -444 197q-183 214 -183 565zM248 723q0 -247 99 -419q126 -218 376 -218q285 0 406 279q70 162 71 366q1 243 -97 415q-126 218 -374 218 q-251 0 -379 -217q-102 -173 -102 -424zM391 1833h217l203 -256h-119z" />
<glyph unicode="&#xd3;" horiz-adv-x="1450" d="M102 725q0 322 152 529q169 229 475 229q326 0 490 -252q131 -202 129 -498q-3 -368 -185 -581q-160 -189 -434 -189q-277 0 -444 197q-183 214 -183 565zM248 723q0 -247 99 -419q126 -218 376 -218q285 0 406 279q70 162 71 366q1 243 -97 415q-126 218 -374 218 q-251 0 -379 -217q-102 -173 -102 -424zM635 1577l201 256h217l-301 -256h-117z" />
<glyph unicode="&#xd4;" horiz-adv-x="1450" d="M102 725q0 322 152 529q169 229 475 229q326 0 490 -252q131 -202 129 -498q-3 -368 -185 -581q-160 -189 -434 -189q-277 0 -444 197q-183 214 -183 565zM248 723q0 -247 99 -419q126 -218 376 -218q285 0 406 279q70 162 71 366q1 243 -97 415q-126 218 -374 218 q-251 0 -379 -217q-102 -173 -102 -424zM473 1581l215 252h86l213 -252h-100l-160 115l-158 -115h-96z" />
<glyph unicode="&#xd5;" horiz-adv-x="1450" d="M102 725q0 322 152 529q169 229 475 229q326 0 490 -252q131 -202 129 -498q-3 -368 -185 -581q-160 -189 -434 -189q-277 0 -444 197q-183 214 -183 565zM248 723q0 -247 99 -419q126 -218 376 -218q285 0 406 279q70 162 71 366q1 243 -97 415q-126 218 -374 218 q-251 0 -379 -217q-102 -173 -102 -424zM387 1612q72 211 205 211q51 0 133 -45q127 -70 152 -70q59 0 112 107l84 -37v-11q-89 -182 -194 -182q-59 0 -170 60q-100 53 -131 53q-70 0 -109 -113z" />
<glyph unicode="&#xd6;" horiz-adv-x="1450" d="M102 725q0 322 152 529q169 229 475 229q326 0 490 -252q131 -202 129 -498q-3 -368 -185 -581q-160 -189 -434 -189q-277 0 -444 197q-183 214 -183 565zM248 723q0 -247 99 -419q126 -218 376 -218q285 0 406 279q70 162 71 366q1 243 -97 415q-126 218 -374 218 q-251 0 -379 -217q-102 -173 -102 -424zM436 1608v196h137v-196h-137zM885 1608v196h137v-196h-137z" />
<glyph unicode="&#xd7;" horiz-adv-x="1106" d="M43 170l424 426l-424 422l86 86l424 -424l426 424l84 -86l-424 -422l424 -426l-84 -84l-426 424l-424 -424z" />
<glyph unicode="&#xd8;" horiz-adv-x="1450" d="M102 725q0 353 172 556q169 202 461 202q269 0 426 -172l123 151l82 -65l-139 -166q127 -215 127 -494q0 -324 -140 -530q-165 -244 -489 -244q-256 0 -410 160l-118 -143l-78 63l131 160q-148 228 -148 522zM248 729q0 -247 94 -416l725 887q-96 160 -326 160 q-238 0 -365.5 -175.5t-127.5 -455.5zM401 229q124 -145 328 -145q225 0 351 166.5t126 451.5q0 105 -16 209q-18 112 -64 199z" />
<glyph unicode="&#xd9;" horiz-adv-x="1409" d="M164 776v670h135v-860q0 -143 9 -205q15 -92 61 -154q103 -137 336 -137q109 0 188 31q155 60 199 239q14 59 14 189v897h137v-658q0 -335 -15 -436q-22 -142 -108 -235q-142 -154 -411 -154q-189 0 -322 79q-141 82 -190 234q-24 74 -30 171q-3 66 -3 329zM371 1833h217 l203 -256h-119z" />
<glyph unicode="&#xda;" horiz-adv-x="1409" d="M164 776v670h135v-860q0 -143 9 -205q15 -92 61 -154q103 -137 336 -137q109 0 188 31q155 60 199 239q14 59 14 189v897h137v-658q0 -335 -15 -436q-22 -142 -108 -235q-142 -154 -411 -154q-189 0 -322 79q-141 82 -190 234q-24 74 -30 171q-3 66 -3 329zM614 1577 l201 256h217l-301 -256h-117z" />
<glyph unicode="&#xdb;" horiz-adv-x="1409" d="M164 776v670h135v-860q0 -143 9 -205q15 -92 61 -154q103 -137 336 -137q109 0 188 31q155 60 199 239q14 59 14 189v897h137v-658q0 -335 -15 -436q-22 -142 -108 -235q-142 -154 -411 -154q-189 0 -322 79q-141 82 -190 234q-24 74 -30 171q-3 66 -3 329zM453 1581 l215 252h86l213 -252h-101l-159 115l-158 -115h-96z" />
<glyph unicode="&#xdc;" horiz-adv-x="1409" d="M164 776v670h135v-860q0 -143 9 -205q15 -92 61 -154q103 -137 336 -137q109 0 188 31q155 60 199 239q14 59 14 189v897h137v-658q0 -335 -15 -436q-22 -142 -108 -235q-142 -154 -411 -154q-189 0 -322 79q-141 82 -190 234q-24 74 -30 171q-3 66 -3 329zM414 1608v196 h137v-196h-137zM862 1608v196h137v-196h-137z" />
<glyph unicode="&#xdd;" horiz-adv-x="1280" d="M20 1446h160l447 -719l465 719h165l-565 -848v-598h-133v598zM549 1577l201 256h217l-301 -256h-117z" />
<glyph unicode="&#xde;" horiz-adv-x="1280" d="M166 0v1446h129v-223h364q192 0 251 -5q92 -7 151 -34q88 -41 140 -132q54 -96 54 -225q0 -318 -296 -383q-77 -16 -343 -16h-321v-428h-129zM295 549h375q180 0 239 10q213 37 213 270q0 161 -104 232q-49 33 -115 41q-55 6 -258 6h-350v-559z" />
<glyph unicode="&#xdf;" horiz-adv-x="1024" d="M152 0v926q0 256 30 342q78 215 332 215q177 0 270 -120q74 -96 74 -228q0 -113 -55 -192q-64 -92 -189 -114q161 -22 242 -141q86 -125 86 -313q0 -179 -91.5 -292.5t-240.5 -113.5q-107 0 -221 64v139q132 -92 221 -92q93 0 146 76q55 80 55 223q0 191 -109 291 q-105 97 -340 86v118q20 -1 40 -1q156 0 231 55q96 70 96 207q0 96 -53 160q-60 71 -166 71q-113 0 -176 -72q-46 -51 -57 -144q-9 -66 -9 -276v-874h-116z" />
<glyph unicode="&#xe0;" horiz-adv-x="1024" d="M92 246q0 152 154 233q98 52 385 117l117 27v49q0 225 -238 225q-159 0 -217 -80q-37 -51 -39 -158l-133 23q18 107 57 168q98 151 328 151q291 0 344 -190q12 -44 12 -188v-316q0 -138 19 -171q25 -41 129 -40v-96q-133 0 -187 25q-75 35 -75 137v18q-5 -8 -9 -20 q-41 -86 -138 -135q-91 -45 -202 -45q-162 0 -244 94q-63 73 -63 172zM211 248q0 -66 46 -110q53 -52 149 -52q153 0 260 107q82 81 82 251v72l-62 -14q-39 -9 -242 -66q-111 -31 -158 -60q-75 -48 -75 -128zM217 1430h227l230 -287h-109z" />
<glyph unicode="&#xe1;" horiz-adv-x="1024" d="M92 246q0 152 154 233q98 52 385 117l117 27v49q0 225 -238 225q-159 0 -217 -80q-37 -51 -39 -158l-133 23q18 107 57 168q98 151 328 151q291 0 344 -190q12 -44 12 -188v-316q0 -138 19 -171q25 -41 129 -40v-96q-133 0 -187 25q-75 35 -75 137v18q-5 -8 -9 -20 q-41 -86 -138 -135q-91 -45 -202 -45q-162 0 -244 94q-63 73 -63 172zM211 248q0 -66 46 -110q53 -52 149 -52q153 0 260 107q82 81 82 251v72l-62 -14q-39 -9 -242 -66q-111 -31 -158 -60q-75 -48 -75 -128zM428 1143l229 287h228l-348 -287h-109z" />
<glyph unicode="&#xe2;" horiz-adv-x="1024" d="M92 246q0 152 154 233q98 52 385 117l117 27v49q0 225 -238 225q-159 0 -217 -80q-37 -51 -39 -158l-133 23q18 107 57 168q98 151 328 151q291 0 344 -190q12 -44 12 -188v-316q0 -138 19 -171q25 -41 129 -40v-96q-133 0 -187 25q-75 35 -75 137v18q-5 -8 -9 -20 q-41 -86 -138 -135q-91 -45 -202 -45q-162 0 -244 94q-63 73 -63 172zM211 248q0 -66 46 -110q53 -52 149 -52q153 0 260 107q82 81 82 251v72l-62 -14q-39 -9 -242 -66q-111 -31 -158 -60q-75 -48 -75 -128zM227 1143l262 282h54l276 -282h-106l-201 133l-182 -133h-103z " />
<glyph unicode="&#xe3;" horiz-adv-x="1024" d="M92 246q0 152 154 233q98 52 385 117l117 27v49q0 225 -238 225q-159 0 -217 -80q-37 -51 -39 -158l-133 23q18 107 57 168q98 151 328 151q291 0 344 -190q12 -44 12 -188v-316q0 -138 19 -171q25 -41 129 -40v-96q-133 0 -187 25q-75 35 -75 137v18q-5 -8 -9 -20 q-41 -86 -138 -135q-91 -45 -202 -45q-162 0 -244 94q-63 73 -63 172zM193 1208q71 178 192 178q58 0 152 -51q75 -41 112 -41q62 0 99 88l83 -20q-41 -88 -71 -123q-51 -61 -123 -61q-47 0 -160 57l-7 3q-74 38 -99 38q-52 0 -92 -86zM211 248q0 -66 46 -110 q53 -52 149 -52q153 0 260 107q82 81 82 251v72l-62 -14q-39 -9 -242 -66q-111 -31 -158 -60q-75 -48 -75 -128z" />
<glyph unicode="&#xe4;" horiz-adv-x="1024" d="M92 246q0 152 154 233q98 52 385 117l117 27v49q0 225 -238 225q-159 0 -217 -80q-37 -51 -39 -158l-133 23q18 107 57 168q98 151 328 151q291 0 344 -190q12 -44 12 -188v-316q0 -138 19 -171q25 -41 129 -40v-96q-133 0 -187 25q-75 35 -75 137v18q-5 -8 -9 -20 q-41 -86 -138 -135q-91 -45 -202 -45q-162 0 -244 94q-63 73 -63 172zM211 248q0 -66 46 -110q53 -52 149 -52q153 0 260 107q82 81 82 251v72l-62 -14q-39 -9 -242 -66q-111 -31 -158 -60q-75 -48 -75 -128zM250 1192v188h125v-188h-125zM602 1192v188h125v-188h-125z" />
<glyph unicode="&#xe5;" horiz-adv-x="1024" d="M92 246q0 152 154 233q98 52 385 117l117 27v49q0 225 -238 225q-159 0 -217 -80q-37 -51 -39 -158l-133 23q18 107 57 168q98 151 328 151q291 0 344 -190q12 -44 12 -188v-316q0 -138 19 -171q25 -41 129 -40v-96q-133 0 -187 25q-75 35 -75 137v18q-5 -8 -9 -20 q-41 -86 -138 -135q-91 -45 -202 -45q-162 0 -244 94q-63 73 -63 172zM211 248q0 -66 46 -110q53 -52 149 -52q153 0 260 107q82 81 82 251v72l-62 -14q-39 -9 -242 -66q-111 -31 -158 -60q-75 -48 -75 -128zM330 1292q0 68 47 115t115 47q67 0 114 -47t47 -115 q0 -67 -47 -114.5t-114 -47.5q-68 0 -115 47.5t-47 114.5zM403 1292q0 -35 25.5 -60.5t60.5 -25.5q36 0 61 25.5t25 60.5q0 36 -25 61t-61 25q-35 0 -60.5 -25t-25.5 -61z" />
<glyph unicode="&#xe6;" horiz-adv-x="1706" d="M78 242q0 142 139 219q92 50 385 125l146 37q2 126 -11 163q-34 103 -211 103q-292 0 -282 -230l-135 17q9 83 45 147q97 176 364 176q263 0 332 -159q38 58 86 92q95 67 246 67q193 0 309 -121q128 -134 131 -393h-754q0 -8 -1 -24.5t-1 -24.5q0 -157 78 -248 q91 -106 250 -106q217 0 291 201l114 -33q-105 -275 -411 -275q-119 0 -216 49q-127 62 -175 191q-118 -235 -402 -235q-85 0 -149 22q-168 59 -168 240zM197 246q0 -156 194 -156q151 0 260 88q64 51 84 119q13 43 13 135v82q-184 -46 -251 -65q-131 -36 -188 -60 q-112 -48 -112 -143zM868 586h611q-17 177 -113 250q-75 57 -184 57q-105 0 -182 -51q-116 -77 -132 -256z" />
<glyph unicode="&#xe7;" horiz-adv-x="981" d="M90 479q0 240 133 381q128 137 334 137q284 0 373 -245l-107 -27q-64 164 -268 164q-147 0 -240 -103q-98 -109 -98 -297q0 -153 62 -261q84 -148 262 -148q152 0 233 88q25 27 47 72l109 -25q-18 -36 -76 -117q-106 -118 -295 -125l-37 -73q31 6 58 6q63 0 103 -36 t40 -95q0 -76 -60 -122t-147 -46q-1 0 -78 6v55q49 -4 66 -4q114 0 114 80q0 78 -100 78q-29 0 -80 -21v49l72 123q-207 12 -321 168q-99 137 -99 338z" />
<glyph unicode="&#xe8;" d="M90 496q0 232 136 373q127 130 315 130q209 0 333 -160q114 -147 107 -352h-758q-4 -111 31 -202q77 -201 301 -201q217 0 291 201l115 -33q-107 -277 -406 -277q-229 0 -354 158q-111 141 -111 363zM162 1430h227l229 -287h-108zM225 586h619q-19 154 -103 231 q-79 74 -202 74q-126 0 -211.5 -83t-102.5 -222z" />
<glyph unicode="&#xe9;" d="M90 496q0 232 136 373q127 130 315 130q209 0 333 -160q114 -147 107 -352h-758q-4 -111 31 -202q77 -201 301 -201q217 0 291 201l115 -33q-107 -277 -406 -277q-229 0 -354 158q-111 141 -111 363zM225 586h619q-19 154 -103 231q-79 74 -202 74q-126 0 -211.5 -83 t-102.5 -222zM446 1143l230 287h227l-348 -287h-109z" />
<glyph unicode="&#xea;" d="M90 496q0 232 136 373q127 130 315 130q209 0 333 -160q114 -147 107 -352h-758q-4 -111 31 -202q77 -201 301 -201q217 0 291 201l115 -33q-107 -277 -406 -277q-229 0 -354 158q-111 141 -111 363zM225 586h619q-19 154 -103 231q-79 74 -202 74q-126 0 -211.5 -83 t-102.5 -222zM246 1143l262 282h53l277 -282h-107l-201 133l-182 -133h-102z" />
<glyph unicode="&#xeb;" d="M90 496q0 232 136 373q127 130 315 130q209 0 333 -160q114 -147 107 -352h-758q-4 -111 31 -202q77 -201 301 -201q217 0 291 201l115 -33q-107 -277 -406 -277q-229 0 -354 158q-111 141 -111 363zM225 586h619q-19 154 -103 231q-79 74 -202 74q-126 0 -211.5 -83 t-102.5 -222zM295 1192v188h125v-188h-125zM647 1192v188h125v-188h-125z" />
<glyph unicode="&#xec;" horiz-adv-x="426" d="M-158 1430h228l229 -287h-109zM154 0v977h118v-977h-118z" />
<glyph unicode="&#xed;" horiz-adv-x="426" d="M127 1143l229 287h228l-348 -287h-109zM154 0v977h118v-977h-118z" />
<glyph unicode="&#xee;" horiz-adv-x="426" d="M-74 1143l262 282h54l276 -282h-106l-201 133l-182 -133h-103zM154 0v977h118v-977h-118z" />
<glyph unicode="&#xef;" horiz-adv-x="426" d="M-25 1192v188h125v-188h-125zM154 0v977h118v-977h-118zM328 1192v188h125v-188h-125z" />
<glyph unicode="&#xf0;" horiz-adv-x="1133" d="M90 481q0 232 121 378.5t319 146.5q175 0 289 -148q-28 98 -45 142q-34 85 -92 176l-326 -105l-30 76l309 100q-69 90 -158 174l88 56q112 -123 168 -199l187 59l30 -75l-168 -54q195 -301 195 -669q0 -151 -37 -260q-33 -100 -102 -172q-119 -125 -308 -125 q-217 0 -336 154q-104 136 -104 345zM219 479q0 -197 92 -300q81 -91 217 -91q156 0 239 113q78 105 79 284q1 133 -37 230q-75 188 -274 188q-138 0 -224 -100q-92 -109 -92 -324z" />
<glyph unicode="&#xf1;" d="M154 0v975h120v-174q28 82 100 135q84 61 206 61q177 0 266 -116q44 -59 56 -140q9 -60 9 -235v-506h-120v506q0 157 -5 201q-6 61 -32 98q-59 84 -191 84q-144 0 -227 -111q-43 -57 -54 -129q-8 -51 -8 -221v-428h-120zM211 1208q71 178 192 178q58 0 152 -51 q75 -41 113 -41q62 0 98 88l84 -20q-42 -88 -71 -123q-52 -61 -124 -61q-47 0 -159 57l-7 3q-74 38 -100 38q-51 0 -92 -86z" />
<glyph unicode="&#xf2;" d="M90 475q0 213 104 358q120 166 341 166q216 0 336 -158q104 -138 106 -347q2 -227 -119 -371q-123 -148 -328 -148q-206 0 -326 147q-114 138 -114 353zM162 1430h227l229 -287h-108zM219 473q0 -197 93 -300q82 -91 218 -91q156 0 239 113q78 105 79 284q1 133 -37 230 q-75 188 -274 188q-140 0 -226 -100q-92 -109 -92 -324z" />
<glyph unicode="&#xf3;" d="M90 475q0 213 104 358q120 166 341 166q216 0 336 -158q104 -138 106 -347q2 -227 -119 -371q-123 -148 -328 -148q-206 0 -326 147q-114 138 -114 353zM219 473q0 -197 93 -300q82 -91 218 -91q156 0 239 113q78 105 79 284q1 133 -37 230q-75 188 -274 188 q-140 0 -226 -100q-92 -109 -92 -324zM446 1143l230 287h227l-348 -287h-109z" />
<glyph unicode="&#xf4;" d="M90 475q0 213 104 358q120 166 341 166q216 0 336 -158q104 -138 106 -347q2 -227 -119 -371q-123 -148 -328 -148q-206 0 -326 147q-114 138 -114 353zM219 473q0 -197 93 -300q82 -91 218 -91q156 0 239 113q78 105 79 284q1 133 -37 230q-75 188 -274 188 q-140 0 -226 -100q-92 -109 -92 -324zM246 1143l262 282h53l277 -282h-107l-201 133l-182 -133h-102z" />
<glyph unicode="&#xf5;" d="M90 475q0 213 104 358q120 166 341 166q216 0 336 -158q104 -138 106 -347q2 -227 -119 -371q-123 -148 -328 -148q-206 0 -326 147q-114 138 -114 353zM211 1208q71 178 192 178q58 0 152 -51q75 -41 113 -41q62 0 98 88l84 -20q-42 -88 -71 -123q-52 -61 -124 -61 q-47 0 -159 57l-7 3q-74 38 -100 38q-51 0 -92 -86zM219 473q0 -197 93 -300q82 -91 218 -91q156 0 239 113q78 105 79 284q1 133 -37 230q-75 188 -274 188q-140 0 -226 -100q-92 -109 -92 -324z" />
<glyph unicode="&#xf6;" d="M90 475q0 213 104 358q120 166 341 166q216 0 336 -158q104 -138 106 -347q2 -227 -119 -371q-123 -148 -328 -148q-206 0 -326 147q-114 138 -114 353zM219 473q0 -197 93 -300q82 -91 218 -91q156 0 239 113q78 105 79 284q1 133 -37 230q-75 188 -274 188 q-140 0 -226 -100q-92 -109 -92 -324zM295 1192v188h125v-188h-125zM647 1192v188h125v-188h-125z" />
<glyph unicode="&#xf7;" horiz-adv-x="1366" d="M0 535v120h1366v-120h-1366zM592 328q0 38 28 66t66 28t66 -28t28 -66q0 -39 -28 -67t-66 -28t-66 28t-28 67zM592 862q0 39 28 66.5t66 27.5t66 -27.5t28 -66.5q0 -38 -28 -66t-66 -28t-66 28t-28 66z" />
<glyph unicode="&#xf8;" d="M90 485q0 210 113 356q124 160 329 160q111 0 207 -51l49 82l78 -45l-53 -92q164 -152 164 -401q0 -226 -118 -370q-123 -149 -324 -149q-115 0 -216 54l-40 -74l-78 45l45 78q-156 162 -156 407zM213 483q0 -171 92 -301l385 674q-75 41 -149 41q-143 0 -235.5 -115 t-92.5 -299zM371 125q62 -43 155 -43q158 0 246 115q82 106 82 290q0 186 -94 314z" />
<glyph unicode="&#xf9;" d="M154 498v479h120v-506q0 -201 29 -271q45 -112 193 -112q129 0 206 82q59 62 77 154q12 63 12 223v430h120v-977h-120v176q-22 -53 -50 -88q-87 -111 -260 -111q-217 0 -293 181q-34 83 -34 340zM162 1430h227l229 -287h-108z" />
<glyph unicode="&#xfa;" d="M154 498v479h120v-506q0 -201 29 -271q45 -112 193 -112q129 0 206 82q59 62 77 154q12 63 12 223v430h120v-977h-120v176q-22 -53 -50 -88q-87 -111 -260 -111q-217 0 -293 181q-34 83 -34 340zM446 1143l230 287h227l-348 -287h-109z" />
<glyph unicode="&#xfb;" d="M154 498v479h120v-506q0 -201 29 -271q45 -112 193 -112q129 0 206 82q59 62 77 154q12 63 12 223v430h120v-977h-120v176q-22 -53 -50 -88q-87 -111 -260 -111q-217 0 -293 181q-34 83 -34 340zM246 1143l262 282h53l277 -282h-107l-201 133l-182 -133h-102z" />
<glyph unicode="&#xfc;" d="M154 498v479h120v-506q0 -201 29 -271q45 -112 193 -112q129 0 206 82q59 62 77 154q12 63 12 223v430h120v-977h-120v176q-22 -53 -50 -88q-87 -111 -260 -111q-217 0 -293 181q-34 83 -34 340zM295 1192v188h125v-188h-125zM647 1192v188h125v-188h-125z" />
<glyph unicode="&#xfd;" horiz-adv-x="895" d="M20 -332q69 -49 127 -49q44 0 69 25t52 92q23 52 51 123l52 141l-338 977h117l284 -832l318 832h122l-440 -1118q-79 -201 -102 -242q-63 -111 -180 -111q-76 0 -132 39v123zM362 1143l230 287h227l-348 -287h-109z" />
<glyph unicode="&#xfe;" d="M156 -518v1964h118v-629q24 55 60 90q90 90 235 90q214 0 323 -180q85 -139 85 -332q0 -210 -105 -353q-113 -155 -301 -155q-218 0 -297 185v-680h-118zM274 502q-3 -129 15 -197q56 -213 260 -213q160 0 241 143q62 111 62 265q0 168 -74 272q-81 115 -229 115 q-265 0 -275 -385z" />
<glyph unicode="&#xff;" horiz-adv-x="895" d="M20 -332q69 -49 127 -49q44 0 69 25t52 92q23 52 51 123l52 141l-338 977h117l284 -832l318 832h122l-440 -1118q-79 -201 -102 -242q-63 -111 -180 -111q-76 0 -132 39v123zM211 1192v188h125v-188h-125zM563 1192v188h125v-188h-125z" />
<glyph unicode="&#x152;" horiz-adv-x="2175" d="M102 719q0 324 177 531q193 225 536 225q100 0 260 -29h975v-121h-836v-524h758v-127h-758v-551h887v-123h-1003q-154 -37 -285 -37q-326 0 -518.5 207t-192.5 549zM246 705q0 -303 175 -468q161 -151 425 -151q119 0 229 37v1202q-126 23 -231 23q-296 0 -451 -172 q-147 -165 -147 -471z" />
<glyph unicode="&#x153;" horiz-adv-x="1794" d="M90 481q0 202 97 342q120 176 356 176q182 0 292 -107q58 -56 83 -124q132 231 385 231q211 0 330 -145q113 -137 116 -367h-760q-2 -12 -2 -51q0 -137 72 -235q86 -119 248 -119q215 0 290 199l115 -31q-104 -275 -403 -275q-139 0 -232 56q-99 59 -159 180 q-41 -114 -148 -176q-102 -60 -233 -60q-204 0 -328 147q-119 141 -119 359zM221 496q0 -206 93 -315q84 -99 225 -99q133 0 218 87q103 106 103 312q0 216 -101 324q-83 88 -212 88q-147 0 -234 -103q-92 -107 -92 -294zM991 590h619q-8 118 -75 201q-83 102 -228 102 q-134 0 -219 -87q-79 -81 -97 -216z" />
<glyph unicode="&#x178;" horiz-adv-x="1280" d="M20 1446h160l447 -719l465 719h165l-565 -848v-598h-133v598zM348 1608v196h137v-196h-137zM797 1608v196h137v-196h-137z" />
<glyph unicode="&#x2c6;" horiz-adv-x="555" d="M-18 1143l262 282h53l276 -282h-106l-201 133l-182 -133h-102z" />
<glyph unicode="&#x2dc;" horiz-adv-x="555" d="M-41 1208q71 178 193 178q57 0 151 -51q75 -41 113 -41q62 0 98 88l84 -20q-42 -88 -71 -123q-52 -61 -124 -61q-47 0 -159 57l-7 3q-74 38 -100 38q-51 0 -92 -86z" />
<glyph unicode="&#x2000;" horiz-adv-x="929" />
<glyph unicode="&#x2001;" horiz-adv-x="1858" />
<glyph unicode="&#x2002;" horiz-adv-x="929" />
<glyph unicode="&#x2003;" horiz-adv-x="1858" />
<glyph unicode="&#x2004;" horiz-adv-x="619" />
<glyph unicode="&#x2005;" horiz-adv-x="464" />
<glyph unicode="&#x2006;" horiz-adv-x="309" />
<glyph unicode="&#x2007;" horiz-adv-x="309" />
<glyph unicode="&#x2008;" horiz-adv-x="232" />
<glyph unicode="&#x2009;" horiz-adv-x="371" />
<glyph unicode="&#x200a;" horiz-adv-x="103" />
<glyph unicode="&#x2010;" horiz-adv-x="725" d="M78 600v133h571v-133h-571z" />
<glyph unicode="&#x2011;" horiz-adv-x="725" d="M78 600v133h571v-133h-571z" />
<glyph unicode="&#x2012;" horiz-adv-x="725" d="M78 600v133h571v-133h-571z" />
<glyph unicode="&#x2013;" horiz-adv-x="1194" d="M78 600v133h1040v-133h-1040z" />
<glyph unicode="&#x2014;" horiz-adv-x="1409" d="M76 600v133h1255v-133h-1255z" />
<glyph unicode="&#x2018;" horiz-adv-x="342" d="M90 885v164q0 158 13 218q16 81 81 179l68 -45q-78 -117 -78 -264v-13h78v-239h-162z" />
<glyph unicode="&#x2019;" horiz-adv-x="342" d="M90 932q78 117 78 264v12h-78v238h162v-162q0 -159 -13 -220q-16 -80 -81 -179z" />
<glyph unicode="&#x201a;" horiz-adv-x="342" d="M90 0v238h162v-164q0 -158 -13 -218q-16 -80 -81 -180l-68 48q78 116 78 264v12h-78z" />
<glyph unicode="&#x201c;" horiz-adv-x="598" d="M90 885v164q0 158 13 218q16 81 81 179l68 -45q-78 -117 -78 -264v-13h78v-239h-162zM346 885v164q0 155 14 221q17 79 80 176l68 -45q-80 -120 -80 -264v-13h80v-239h-162z" />
<glyph unicode="&#x201d;" horiz-adv-x="598" d="M90 932q78 117 78 264v12h-78v238h162v-162q0 -159 -13 -220q-16 -80 -81 -179zM346 932q78 117 78 264v12h-78v238h162v-162q0 -157 -13 -220q-17 -79 -81 -179z" />
<glyph unicode="&#x201e;" horiz-adv-x="598" d="M90 0v238h162v-164q0 -158 -13 -218q-16 -80 -81 -180l-68 48q78 116 78 264v12h-78zM346 0v238h162v-164q0 -156 -13 -218q-17 -79 -81 -180l-68 48q78 116 78 264v12h-78z" />
<glyph unicode="&#x2022;" horiz-adv-x="682" d="M96 723q0 101 71.5 172.5t172.5 71.5t172.5 -71.5t71.5 -172.5t-71.5 -172.5t-172.5 -71.5t-172.5 71.5t-71.5 172.5z" />
<glyph unicode="&#x2026;" horiz-adv-x="2048" d="M260 0v238h162v-238h-162zM944 0v238h162v-238h-162zM1628 0v238h162v-238h-162z" />
<glyph unicode="&#x202f;" horiz-adv-x="371" />
<glyph unicode="&#x2039;" horiz-adv-x="512" d="M88 633l244 379l96 -60l-203 -319l203 -289l-96 -63z" />
<glyph unicode="&#x203a;" horiz-adv-x="512" d="M84 342l203 317l-203 289l96 64l244 -353l-244 -378z" />
<glyph unicode="&#x205f;" horiz-adv-x="464" />
<glyph unicode="&#x2122;" horiz-adv-x="1407" d="M49 1362v86h537v-86h-217v-594h-97v594h-223zM643 768v680h137l178 -559l175 559h137v-680h-94l4 584l-35 -119l-148 -465h-86l-182 582l6 -136v-446h-92z" />
<glyph unicode="&#x25fc;" horiz-adv-x="975" d="M0 0v975h975v-975h-975z" />
</font>
</defs>
</svg>
